<?xml version="1.0" encoding="UTF-8" standalone="no"?>
<!-- Created with Inkscape (http://www.inkscape.org/) -->

<svg
   xmlns:dc="http://purl.org/dc/elements/1.1/"
   xmlns:cc="http://creativecommons.org/ns#"
   xmlns:rdf="http://www.w3.org/1999/02/22-rdf-syntax-ns#"
   xmlns:svg="http://www.w3.org/2000/svg"
   xmlns="http://www.w3.org/2000/svg"
   xmlns:sodipodi="http://sodipodi.sourceforge.net/DTD/sodipodi-0.dtd"
   xmlns:inkscape="http://www.inkscape.org/namespaces/inkscape"
   width="210mm"
   height="297mm"
   viewBox="0 0 210 297"
   version="1.1"
   id="svg8"
   inkscape:version="0.92.4 (5da689c313, 2019-01-14)"
   sodipodi:docname="cloud.svg">
  <defs
     id="defs2" />
  <sodipodi:namedview
     id="base"
     pagecolor="#ffffff"
     bordercolor="#666666"
     borderopacity="1.0"
     inkscape:pageopacity="0.0"
     inkscape:pageshadow="2"
     inkscape:zoom="0.35"
     inkscape:cx="-401.42857"
     inkscape:cy="560"
     inkscape:document-units="mm"
     inkscape:current-layer="_x31_2_cloud"
     showgrid="false"
     inkscape:window-width="1920"
     inkscape:window-height="1017"
     inkscape:window-x="1912"
     inkscape:window-y="-8"
     inkscape:window-maximized="1" />
  <metadata
     id="metadata5">
    <rdf:RDF>
      <cc:Work
         rdf:about="">
        <dc:format>image/svg+xml</dc:format>
        <dc:type
           rdf:resource="http://purl.org/dc/dcmitype/StillImage" />
        <dc:title></dc:title>
      </cc:Work>
    </rdf:RDF>
  </metadata>
  <g
     inkscape:label="Layer 1"
     inkscape:groupmode="layer"
     id="layer1">
    <g
       id="g828"
       transform="matrix(0.26456008,0,0,0.26456008,22.980858,56.909744)">
      <g
         id="_x31_2_cloud"
         style="opacity:0.5">
        <path
           id="path815"
           d="M 438.371,272.5 C 442.485,214.895 389.447,170.491 333.769,184.007 322.482,133.149 277.116,95.115 222.86,95.115 c -64.3,0 -116.151,53.431 -113.511,118.313 -0.035,0 -0.069,-0.001 -0.104,-0.001 -56.192,0 -101.745,45.552 -101.745,101.744 0,54.87 43.437,99.588 97.8,101.661 v 0.083 h 326.85 c 39.958,0 72.35,-32.392 72.35,-72.35 0,-37.86 -29.086,-68.908 -66.129,-72.065 z"
           inkscape:connector-curvature="0"
           style="fill:#d8ecfe" />
        <g
           id="g821"
           style="">
          <g
             id="g819"
             style="">
            <path
               id="path817"
               d="M 438.371,272.5 C 442.485,214.895 389.447,170.491 333.769,184.007 322.481,133.149 277.116,95.115 222.86,95.115 c -17.954,0 -34.935,4.169 -50.033,11.587 3.786,-0.381 7.625,-0.58 11.51,-0.58 54.256,0 99.622,38.034 110.909,88.892 55.678,-13.516 108.715,30.888 104.602,88.493 37.043,3.157 66.129,34.206 66.129,72.066 0,25.869 -13.587,48.554 -34.004,61.344 h 0.176 c 39.958,0 72.35,-32.392 72.35,-72.35 10e-4,-37.862 -29.085,-68.91 -66.128,-72.067 z"
               inkscape:connector-curvature="0"
               style="fill:#c4e2ff" />
          </g>
        </g>
      </g>
      <g
         id="g826">
        <path
           id="path824"
           d="m 432.15,424.416 c -346.296,0 -327.188,0.077 -328.296,-0.139 C 45.907,421.459 0,373.643 0,315.171 0,257.441 45.007,210.026 101.779,206.179 c 0.557,-26.561 9.934,-52.453 26.547,-73.168 2.592,-3.231 7.312,-3.751 10.543,-1.158 3.231,2.591 3.75,7.312 1.158,10.543 -15.227,18.986 -23.275,41.91 -23.275,66.295 0,4.426 0.724,7.102 -1.994,9.932 -1.414,1.473 -3.368,2.306 -5.41,2.306 -0.037,0 -0.101,0 -0.153,-0.001 C 57.251,220.953 15,263.221 15,315.171 c 0,50.866 39.79,92.229 90.585,94.167 3.085,0.117 -25.973,0.078 326.564,0.078 16.937,0 32.96,-6.488 45.12,-18.27 2.975,-2.882 7.722,-2.809 10.605,0.167 2.882,2.975 2.808,7.723 -0.167,10.605 -14.973,14.508 -34.703,22.498 -55.557,22.498 z m 66.407,-50.118 c -3.935,-1.293 -6.077,-5.531 -4.784,-9.466 13.132,-39.967 -15.107,-81.37 -56.039,-84.859 -4.087,-0.348 -7.137,-3.916 -6.844,-8.008 3.242,-45.372 -32.668,-82.9 -76.884,-82.9 -6.156,0 -12.37,0.75 -18.468,2.23 -4.072,0.99 -8.18,-1.56 -9.09,-5.664 -10.676,-48.103 -54.241,-83.017 -103.588,-83.017 -21.047,0 -41.387,6.148 -58.82,17.78 -3.445,2.299 -8.102,1.369 -10.401,-2.076 -2.299,-3.445 -1.37,-8.103 2.076,-10.401 19.906,-13.282 43.125,-20.303 67.146,-20.303 27.722,0 54.817,9.607 76.296,27.052 19.249,15.634 33.31,36.94 40.119,60.584 4.896,-0.789 9.826,-1.187 14.731,-1.187 50.688,0 91.943,41.192 92.089,91.886 47.609,8.39 77.142,57.271 61.928,103.563 -1.293,3.935 -5.529,6.08 -9.467,4.786 z"
           inkscape:connector-curvature="0" />
      </g>
    </g>
  </g>
</svg>
