<?xml version="1.0" encoding="UTF-8" standalone="no"?>
<!-- Created with Inkscape (http://www.inkscape.org/) -->

<svg
   xmlns:dc="http://purl.org/dc/elements/1.1/"
   xmlns:cc="http://creativecommons.org/ns#"
   xmlns:rdf="http://www.w3.org/1999/02/22-rdf-syntax-ns#"
   xmlns:svg="http://www.w3.org/2000/svg"
   xmlns="http://www.w3.org/2000/svg"
   xmlns:sodipodi="http://sodipodi.sourceforge.net/DTD/sodipodi-0.dtd"
   xmlns:inkscape="http://www.inkscape.org/namespaces/inkscape"
   width="135.46667mm"
   height="107.91557mm"
   viewBox="0 0 135.46668 107.91557"
   version="1.1"
   id="svg8"
   inkscape:version="0.92.4 (5da689c313, 2019-01-14)"
   sodipodi:docname="fir.svg">
  <defs
     id="defs2" />
  <sodipodi:namedview
     id="base"
     pagecolor="#ffffff"
     bordercolor="#666666"
     borderopacity="1.0"
     inkscape:pageopacity="0.0"
     inkscape:pageshadow="2"
     inkscape:zoom="2.8"
     inkscape:cx="400.02058"
     inkscape:cy="166.32532"
     inkscape:document-units="mm"
     inkscape:current-layer="g887"
     showgrid="false"
     inkscape:window-width="1858"
     inkscape:window-height="1057"
     inkscape:window-x="54"
     inkscape:window-y="-8"
     inkscape:window-maximized="1"
     fit-margin-top="0"
     fit-margin-left="0"
     fit-margin-right="0"
     fit-margin-bottom="0" />
  <metadata
     id="metadata5">
    <rdf:RDF>
      <cc:Work
         rdf:about="">
        <dc:format>image/svg+xml</dc:format>
        <dc:type
           rdf:resource="http://purl.org/dc/dcmitype/StillImage" />
        <dc:title></dc:title>
      </cc:Work>
    </rdf:RDF>
  </metadata>
  <g
     inkscape:label="Layer 1"
     inkscape:groupmode="layer"
     id="layer1"
     style="display:inline"
     transform="translate(-35.832142,-100.07646)">
    <g
       id="g828"
       transform="matrix(0.26456008,0,0,0.26456008,22.980858,56.909744)"
       style="display:inline">
      <g
         id="g887"
         transform="matrix(1.0000879,0,0,1.0000879,48.576053,80.005698)">
        <path
           id="path845"
           d="m 193.75,268.558 c 0,-4.139 3.373,-7.483 7.512,-7.483 4.139,0 7.483,3.345 7.483,7.483 v 36.652 c 0,4.139 -3.345,7.483 -7.483,7.483 -4.138,0 -7.512,-3.345 -7.512,-7.483 z"
           inkscape:connector-curvature="0"
           style="fill:#917d52" />
        <path
           id="path847"
           d="M 296.678,491.021 -252.5,501.08229 C -212.21751,456.6626 -101.4719,386.27421 -16.524571,345.54029 34.789462,320.9342 87.62,293.218 145.986,293.218 c 95.217,0 172.405,59.584 172.405,133.087 10e-4,23.5 -7.88,45.553 -21.713,64.716 z"
           inkscape:connector-curvature="0"
           style="clip-rule:evenodd;fill:#95d6a4;fill-rule:evenodd"
           sodipodi:nodetypes="ccascc" />
        <path
           id="path849"
           d="M 296.678,491.021 -30,497.15371 -155.71428,499.225 C -101.77028,459.54 148.425,363.206 256,363.206 c 14.514,0 28.8,0.482 42.775,1.417 12.529,18.454 19.616,39.43 19.616,61.682 10e-4,23.5 -7.88,45.553 -21.713,64.716 z"
           inkscape:connector-curvature="0"
           style="clip-rule:evenodd;fill:#78c2a4;fill-rule:evenodd"
           sodipodi:nodetypes="cccsccc" />
        <path
           id="path851"
           d="m 339.227,261.584 c 0,-4.138 3.345,-7.512 7.483,-7.512 4.167,0 7.512,3.374 7.512,7.512 v 59.528 c 0,4.139 -3.345,7.512 -7.512,7.512 -4.139,0 -7.483,-3.373 -7.483,-7.512 z"
           inkscape:connector-curvature="0"
           style="fill:#917d52" />
        <path
           id="path853"
           d="M 782.35714,491.86257 C 716.94758,497.29877 512,476.054 512,476.054 c -7.03,5.499 -14.967,10.517 -23.642,14.967 H 286.246 c -35.915,-18.397 -58.848,-46.403 -58.848,-77.783 0,-55.446 71.576,-100.374 159.904,-100.374 47.027,0 95.99405,14.45548 140.80186,32.03657 91.12672,35.75509 351.14508,138.90932 254.25328,146.962 z"
           inkscape:connector-curvature="0"
           style="clip-rule:evenodd;fill:#b3e59f;fill-rule:evenodd"
           sodipodi:nodetypes="scccssas" />
        <path
           id="path855"
           d="M 716.28571,490.07686 512,476.054 c -7.03,5.499 -14.967,10.517 -23.642,14.967 H 286.246 c -35.915,-18.397 -58.848,-46.403 -58.848,-77.783 0,-18.198 7.71,-35.263 21.203,-49.975 2.466,-0.029 4.933,-0.057 7.398,-0.057 107.577,0 406.37071,87.18586 460.28671,126.87086 z"
           inkscape:connector-curvature="0"
           style="clip-rule:evenodd;fill:#95d6a4;fill-rule:evenodd"
           sodipodi:nodetypes="ccccscsc" />
        <path
           id="path857"
           d="m 69.988,376.501 c 0,-4.139 3.373,-7.512 7.512,-7.512 4.139,0 7.484,3.373 7.484,7.512 v 43.994 c 0,4.138 -3.346,7.512 -7.484,7.512 -4.138,0 -7.512,-3.373 -7.512,-7.512 z"
           inkscape:connector-curvature="0"
           style="fill:#917d52" />
        <path
           id="path859"
           d="m 434.783,379.25 c 0,-4.139 3.345,-7.512 7.483,-7.512 4.167,0 7.512,3.373 7.512,7.512 v 43.994 c 0,4.139 -3.345,7.483 -7.512,7.483 -4.139,0 -7.483,-3.345 -7.483,-7.483 z"
           inkscape:connector-curvature="0"
           style="fill:#917d52" />
        <path
           id="path861"
           d="m 716.28571,490.07686 c -0.766,6.917 -210.01663,5.10263 -216.93363,5.86863 0,0 -331.22368,-2.87824 -496.7654323,1.07143 -38.3218237,1.62522 -105.7134677,0.79313 -142.0815677,2.20414 78.989035,-34.66041 82.582025,-36.4604 125.714282,-49.35528 88.201296,-26.36878 163.827798,-58.44907 270.285718,-56.73329 167.13891,2.69378 306.65805,50.73837 459.78063,96.94437 z"
           inkscape:connector-curvature="0"
           style="clip-rule:evenodd;fill:#d6f6b2;fill-rule:evenodd"
           sodipodi:nodetypes="ccccasc" />
        <path
           id="path863"
           d="m 512,467.72 c 85.03913,5.66369 215.04709,20.87956 204.28571,22.35686 l -855.78063,9.1442 C -165.68398,504.79269 -47.375551,473.00272 0,467.72 c 169.61544,-18.91335 512,0 512,0 z"
           inkscape:connector-curvature="0"
           style="clip-rule:evenodd;fill:#ccf49f;fill-rule:evenodd"
           sodipodi:nodetypes="cccac" />
        <path
           id="path867"
           d="M 85.579,255.178 115.938,365.9 c 1.445,5.272 -2.637,10.602 -8.079,10.602 H 47.113 c -4.65,0 -8.392,-3.771 -8.392,-8.391 0,-1.049 0.17,-2.041 0.538,-2.977 L 69.421,255.093 c 1.219,-4.479 5.811,-7.087 10.262,-5.868 3.005,0.794 5.187,3.147 5.896,5.953 z"
           inkscape:connector-curvature="0"
           style="fill:#66b394" />
        <path
           id="path869"
           d="m 450.373,257.928 30.36,110.721 c 1.418,5.272 -2.636,10.602 -8.079,10.602 h -60.747 c -4.648,0 -8.391,-3.77 -8.391,-8.391 0,-1.049 0.171,-2.041 0.511,-2.977 l 30.188,-110.04 c 1.22,-4.479 5.812,-7.087 10.262,-5.896 3.005,0.822 5.16,3.174 5.896,5.981 z"
           inkscape:connector-curvature="0"
           style="fill:#66b394" />
        <path
           id="path871"
           d="m 207.81,170.195 24.635,89.774 c 1.162,4.28 -2.154,8.589 -6.548,8.589 h -49.268 c -3.771,0 -6.831,-3.033 -6.831,-6.803 0,-0.851 0.17,-1.644 0.453,-2.381 l 24.463,-89.263 c 0.992,-3.628 4.706,-5.754 8.334,-4.762 2.409,0.651 4.195,2.579 4.762,4.846 z"
           inkscape:connector-curvature="0"
           style="fill:#66b394" />
        <path
           id="path873"
           d="m 358.048,91.931 42.436,154.828 c 2.012,7.398 -3.686,14.825 -11.282,14.825 h -84.955 c -6.493,0 -11.765,-5.272 -11.765,-11.764 0,-1.445 0.283,-2.835 0.765,-4.139 L 335.428,91.76 c 1.701,-6.236 8.136,-9.893 14.372,-8.192 4.195,1.134 7.228,4.423 8.248,8.363 z"
           inkscape:connector-curvature="0"
           style="fill:#66b394" />
        <g
           id="g885"
           style="clip-rule:evenodd;fill-rule:evenodd">
          <path
             id="path875"
             d="m 334.209,96.211 41.272,150.548 c 2.013,7.398 -3.686,14.825 -11.282,14.825 h 25.003 c 7.597,0 13.294,-7.427 11.282,-14.825 L 358.048,91.931 c -1.02,-3.94 -4.053,-7.229 -8.248,-8.362 -6.236,-1.701 -12.671,1.956 -14.372,8.192 z"
             inkscape:connector-curvature="0"
             style="fill:#5aa687" />
          <path
             id="path877"
             d="m 429.766,274 12.331,44.929 13.635,49.72 c 1.247,4.564 -1.645,9.156 -5.953,10.318 -0.681,0.17 -1.389,0.284 -2.126,0.284 h 2.126 22.876 c 5.443,0 9.497,-5.329 8.079,-10.602 l -11.396,-41.556 -18.965,-69.165 c -0.736,-2.807 -2.891,-5.159 -5.895,-5.981 -4.45,-1.19 -9.042,1.417 -10.262,5.896 z"
             inkscape:connector-curvature="0"
             style="fill:#5aa687" />
          <path
             id="path879"
             d="m 232.444,259.969 -24.635,-89.774 c -0.566,-2.268 -2.353,-4.195 -4.762,-4.847 -3.628,-0.992 -7.342,1.134 -8.334,4.762 l -5.953,21.742 18.681,68.117 c 0.368,1.417 0.284,2.834 -0.198,4.081 -0.936,2.58 -3.401,4.507 -6.35,4.507 h 7.852 17.151 c 4.394,10e-4 7.71,-4.308 6.548,-8.588 z"
             inkscape:connector-curvature="0"
             style="fill:#5aa687" />
          <path
             id="path881"
             d="M 97.484,298.604 85.579,255.177 c -0.709,-2.806 -2.892,-5.159 -5.896,-5.953 -4.451,-1.219 -9.043,1.389 -10.262,5.868 L 65,271.25 l 9.326,34.072 16.61,60.577 c 1.247,4.563 -1.644,9.156 -5.952,10.318 -0.681,0.17 -1.39,0.284 -2.127,0.284 h 2.127 22.875 c 5.442,0 9.524,-5.329 8.079,-10.602 z"
             inkscape:connector-curvature="0"
             style="fill:#5aa687" />
        </g>
      </g>
      <g
         inkscape:groupmode="layer"
         id="layer2"
         inkscape:label="Layer 2"
         style="display:inline" />
    </g>
  </g>
  <g
     inkscape:groupmode="layer"
     id="layer3"
     inkscape:label="Layer 3"
     transform="matrix(0.26456008,0,0,0.26456008,-12.851284,-43.166716)"
     style="display:inline">
    <g
       style="display:inline"
       id="g983"
       transform="matrix(1.0000879,0,0,1.0000879,-0.59143376,48.143593)">
      <g
         transform="translate(8.8388345,40.406102)"
         id="g976">
        <path
           id="cloud"
           d="m 251.34971,-15.671714 c -0.623,0 -1.247,0.028 -1.9,0.057 -5.725,-18.312 -22.819,-31.578 -43.03,-31.578 -3.146,0 -6.265,0.312 -9.241,0.936 -8.192,-21.657 -29.111,-37.049 -53.632,-37.049 -27.213,0 -49.975996,18.936 -55.870996,44.334 -17.603,3.401 -30.87,18.907 -30.87,37.5020002 0,12.0469998 3.545,25.1709998 16.924,25.1709998 H 275.44571 c 3.345,0 8.249,-0.482 8.249,-7.03 -10e-4,-17.8579998 -14.486,-32.343 -32.345,-32.343 z"
           inkscape:connector-curvature="0"
           style="clip-rule:evenodd;fill:#d2f6ff;fill-rule:evenodd"
           inkscape:transform-center-x="0.75595229"
           inkscape:transform-center-y="-3.0238094" />
      </g>
      <path
         id="path883"
         d="M 82.896682,64.686702 H 284.61268 c 3.345,0 8.249,-0.482 8.249,-7.03 0,-6.718 -2.041,-12.983 -5.557,-18.142 -0.936,0.142 -1.87,0.17 -2.692,0.17 H 82.896682 c -8.361,0 -12.869,-5.103 -15.108,-11.877 -1.19,3.686 -1.815,7.626 -1.815,11.708 0,12.047 3.544,25.171 16.923,25.171 z"
         inkscape:connector-curvature="0"
         style="fill:#b8f0ff" />
    </g>
  </g>
</svg>
